<svg width="800" height="800" viewBox="0 0 800 800" fill="none" xmlns="http://www.w3.org/2000/svg">
<path d="M133.333 666.667H364.777M364.777 666.667H368.557M364.777 666.667C365.407 666.673 366.037 666.673 366.667 666.673C367.297 666.673 367.927 666.673 368.557 666.667M364.777 666.667C236.78 665.65 133.333 561.56 133.333 433.327V297.428C133.333 280.435 147.102 266.667 164.095 266.667H569.223C586.217 266.667 600 280.435 600 297.428V300M368.557 666.667H600M368.557 666.667C496.553 665.65 600 561.56 600 433.327M600 300H650C696.023 300 733.333 337.31 733.333 383.333C733.333 429.357 696.023 466.667 650 466.667H600V433.327M600 300V433.327M500 100L466.667 166.667M400 100L366.667 166.667M300 100L266.667 166.667" stroke="white" stroke-width="66.6667" stroke-linecap="round" stroke-linejoin="round"/>
</svg>
