<svg width="1024" height="1024" viewBox="0 0 1024 1024" xmlns="http://www.w3.org/2000/svg">
<style>
rect { fill: #FFFFFF; }
path { fill: none; stroke: #000000; stroke-width: 66.6667; stroke-linecap: round; stroke-linejoin: round; }
@media (prefers-color-scheme: dark) {
  rect { fill: #000000; }
  path { stroke: #FFFFFF; }
}
</style>
<rect width="1024" height="1024" rx="300"/>
<path d="M245.333 778.667H476.777M476.777 778.667H480.557M476.777 778.667C477.407 778.673 478.037 778.673 478.667 778.673C479.297 778.673 479.927 778.673 480.557 778.667M476.777 778.667C348.78 777.65 245.333 673.56 245.333 545.327V409.428C245.333 392.435 259.102 378.667 276.095 378.667H681.223C698.217 378.667 712 392.435 712 409.428V412M480.557 778.667H712M480.557 778.667C608.553 777.65 712 673.56 712 545.327M712 412H762C808.023 412 845.333 449.31 845.333 495.333C845.333 541.357 808.023 578.667 762 578.667H712V545.327M712 412V545.327M612 212L578.667 278.667M512 212L478.667 278.667M412 212L378.667 278.667"/>
</svg>