<svg width="600" height="530" viewBox="0 0 600 530" fill="none" xmlns="http://www.w3.org/2000/svg">
<path d="M135.72 44.03C202.216 93.951 273.74 195.17 300 249.49C326.262 195.174 397.782 93.95 464.28 44.03C512.26 8.009 590 -19.862 590 68.825C590 86.537 579.845 217.615 573.889 238.895C553.186 312.879 477.745 331.749 410.639 320.328C527.939 340.292 557.779 406.42 493.336 472.548C370.946 598.138 317.426 441.037 303.706 400.782C301.192 393.402 300.016 389.95 299.998 392.886C299.981 389.95 298.805 393.402 296.291 400.782C282.577 441.037 229.058 598.142 106.661 472.548C42.2166 406.42 72.0556 340.288 189.358 320.328C122.25 331.749 46.8076 312.879 26.1076 238.895C20.1514 217.613 9.99661 86.535 9.99661 68.825C9.99661 -19.862 87.7386 8.009 135.717 44.03H135.72Z" fill="white"/>
</svg>
