<svg width="16" height="16" viewBox="0 0 16 16" fill="none" xmlns="http://www.w3.org/2000/svg">
<path d="M14.4163 2.04898C14.3586 1.99836 14.2765 1.98662 14.2069 2.0189L1.62923 7.86275C1.56152 7.89422 1.51792 7.96178 1.5171 8.03643C1.51629 8.11108 1.55846 8.17957 1.62551 8.21248L5.18484 9.95939C5.25012 9.99145 5.32795 9.9842 5.38624 9.94063L8.84712 7.35402L6.13043 10.1486C6.09167 10.1885 6.07191 10.2431 6.07617 10.2985L6.34667 13.8214C6.35268 13.8993 6.40501 13.9662 6.47939 13.9907C6.49927 13.9972 6.5197 14.0004 6.53989 14.0004C6.59528 14.0004 6.64916 13.9766 6.68664 13.9332L8.57588 11.7441L10.9112 12.86C10.9619 12.8842 11.0205 12.8852 11.0721 12.8628C11.1236 12.8403 11.1628 12.7967 11.1796 12.7431L14.4734 2.25274C14.4964 2.17949 14.474 2.0996 14.4163 2.04898Z" fill="white"/>
</svg>
